<svg xmlns="http://www.w3.org/2000/svg" width="32.579" height="31.773" viewBox="0 0 32.579 31.773"><path fill="#181616" d="M-36.71 4.625c-8.996 0-16.29 7.293-16.29 16.29 0 7.196 4.667 13.303 11.14 15.457.815.148 1.113-.354 1.113-.785 0-.387-.014-1.41-.022-2.77-4.53.983-5.483-2.185-5.483-2.185-.74-1.882-1.81-2.383-1.81-2.383-1.478-1.016.113-.99.113-.99 1.634.11 2.494 1.675 2.494 1.675 1.453 2.49 3.812 1.77 4.74 1.354.15-1.053.57-1.77 1.035-2.178-3.62-.41-7.42-1.81-7.42-8.052 0-1.775.633-3.23 1.675-4.37-.167-.41-.727-2.066.16-4.31 0 0 1.368-.44 4.48 1.67 1.298-.36 2.692-.542 4.077-.55 1.384.008 2.778.19 4.08.55 3.11-2.11 4.475-1.67 4.475-1.67.89 2.243.33 3.9.162 4.31 1.04 1.14 1.672 2.595 1.672 4.37 0 6.26-3.808 7.638-7.437 8.04.584.503 1.105 1.497 1.105 3.018 0 2.178-.02 3.935-.02 4.47 0 .435.295.94 1.12.782 6.468-2.16 11.13-8.26 11.13-15.455 0-8.998-7.29-16.29-16.29-16.29z"/><path fill="#fff" d="M11.12 27.214c-3.23 0-6.237-.946-8.768-2.57.448.054.902.08 1.365.08 2.68 0 5.145-.913 7.1-2.448-2.5-.046-4.613-1.698-5.34-3.97.348.065.707.1 1.075.1.522 0 1.027-.067 1.508-.2-2.616-.523-4.588-2.835-4.588-5.606v-.072c.77.428 1.652.686 2.59.715-1.534-1.025-2.544-2.775-2.544-4.76 0-1.047.283-2.03.775-2.875 2.82 3.46 7.034 5.737 11.788 5.976-.094-.42-.144-.855-.144-1.304 0-3.157 2.562-5.718 5.718-5.718 1.647 0 3.134.695 4.177 1.806 1.304-.257 2.527-.732 3.63-1.388-.43 1.335-1.332 2.456-2.514 3.164 1.157-.138 2.26-.446 3.285-.9-.766 1.147-1.736 2.153-2.854 2.96.012.245.018.492.018.74-.002 7.555-5.756 16.27-16.274 16.27"/></svg>