<svg xmlns="http://www.w3.org/2000/svg" width="32.579" height="31.773" viewBox="0 0 32.579 31.773"><path fill="#181616" d="M52.004-85.422c-7.172 0-12.988 5.815-12.988 12.99 0 5.737 3.72 10.607 8.883 12.325.648.118.886-.284.886-.626 0-.31-.012-1.126-.018-2.21-3.612.784-4.375-1.74-4.375-1.74-.59-1.502-1.44-1.9-1.44-1.9-1.18-.808.087-.79.087-.79 1.305.092 1.99 1.338 1.99 1.338 1.158 1.985 3.04 1.412 3.78 1.08.118-.84.454-1.412.824-1.736-2.884-.33-5.917-1.444-5.917-6.42 0-1.418.508-2.578 1.338-3.486-.133-.328-.58-1.648.127-3.437 0 0 1.092-.35 3.572 1.332 1.035-.29 2.146-.433 3.25-.438 1.104.005 2.215.15 3.252.437 2.48-1.682 3.568-1.333 3.568-1.333.71 1.79.264 3.11.13 3.437.83.91 1.335 2.068 1.335 3.485 0 4.99-3.038 6.088-5.933 6.41.467.4.883 1.192.883 2.405 0 1.736-.016 3.137-.016 3.563 0 .347.232.75.893.624 5.156-1.72 8.875-6.587 8.875-12.324 0-7.175-5.816-12.99-12.988-12.99z"/><path fill="#fff" d="M23.034 30.058s-1.268-.395-1.268-.887c0-.605.022-2.594.022-5.06 0-1.724-.592-2.85-1.254-3.42 4.11-.454 8.425-2.016 8.425-9.103 0-2.013-.717-3.66-1.898-4.95.19-.466.824-2.342-.184-4.883 0 0-1.545-.497-5.068 1.892-1.473-.41-3.052-.614-4.617-.62-1.57.006-3.147.21-4.62.62-3.522-2.387-5.07-1.89-5.07-1.89-1.005 2.54-.372 4.416-.182 4.88-1.18 1.292-1.9 2.94-1.9 4.952 0 7.07 4.31 8.653 8.405 9.12-.526.46-1.003 1.273-1.17 2.465-1.053.472-3.725 1.286-5.37-1.534 0 0-.974-1.77-2.826-1.9 0 0-1.803-.025-.127 1.12 0 0 1.21.567 2.05 2.7 0 0 1.082 3.586 6.212 2.473.01 1.54.025 2.7.025 3.14 0 .484-1.26.89-1.26.89l11.674-.005z"/><path fill="#181616" d="M-116.27-31.497M-110.46-21.676M-113.148-25.738"/><path fill="#fff" stroke="#000" stroke-miterlimit="10" d="M11.12-2.786c-3.23 0-6.237-.946-8.768-2.57.448.054.902.08 1.365.08 2.68 0 5.145-.913 7.1-2.448-2.5-.046-4.613-1.7-5.34-3.97.348.065.707.1 1.075.1.522 0 1.027-.067 1.508-.2-2.616-.523-4.588-2.835-4.588-5.606v-.072c.77.428 1.652.686 2.59.715-1.534-1.025-2.544-2.775-2.544-4.76 0-1.047.283-2.03.775-2.875 2.82 3.46 7.034 5.737 11.788 5.976-.097-.42-.147-.855-.147-1.304 0-3.157 2.562-5.718 5.718-5.718 1.647 0 3.134.695 4.177 1.806 1.304-.257 2.527-.732 3.632-1.388-.43 1.335-1.334 2.456-2.516 3.164 1.157-.138 2.26-.446 3.285-.9-.767 1.147-1.737 2.153-2.855 2.96.012.245.018.492.018.74-.002 7.555-5.756 16.27-16.274 16.27"/><g fill="none" stroke-width="0" stroke-linecap="round" stroke-linejoin="round"><path stroke="#000" d="M-44.734 17.267c.36.336.548.67.548.67 1.16 1.986 3.04 1.413 3.78 1.08.12-.838.455-1.41.825-1.735-1.564-.178-3.167-.593-4.31-1.723"/><path stroke="#181616" d="M-43.137 23.77M-31.304 23.95"/><path stroke="#000" d="M-31.304 23.95c-.342-.3-.91-.38-1.793-.086-.66.126-.893-.277-.893-.624 0-.427.016-1.827.016-3.563 0-1.213-.416-2.006-.883-2.406 1.616-.178 3.275-.602 4.427-1.808M-45.023 18.842c.07.14.138.283.202.447 0 0 .76 2.524 4.374 1.74.006 1.084.018 1.9.018 2.21 0 .342-.237.744-.886.626-1.434-.478-1.897-.423-1.82-.098"/><path stroke="#181616" d="M-44.734 17.267c-.333-.312-.813-.623-1.44-.667 0 0-1.27-.018-.09.79 0 0 .674.32 1.24 1.452M-30.43 15.462c.91-.954 1.505-2.397 1.505-4.6 0-1.418-.504-2.578-1.336-3.486.134-.328.58-1.648-.13-3.437 0 0-1.088-.35-3.568 1.33-1.037-.287-2.148-.43-3.25-.436-1.105.005-2.216.15-3.252.437-2.48-1.68-3.57-1.33-3.57-1.33-.708 1.788-.262 3.108-.128 3.436-.83.91-1.337 2.068-1.337 3.485 0 2.28.64 3.744 1.607 4.698"/><path stroke="#000" d="M-44.734 17.267M-43.89 15.558M-44.734 17.267M-45.023 18.842M-30.43 15.462M-43.89 15.558M-43.137 23.77M-45.023 18.842M-30.43 15.462M-31.304 23.95M-31.304 23.95c-1.447 1.398-3.517 2.28-5.824 2.28-2.406 0-4.557-.957-6.01-2.462"/></g></svg>